<?xml version="1.0" encoding="UTF-8"?>
<svg id="_Слой_2" data-name="Слой 2" xmlns="http://www.w3.org/2000/svg" viewBox="0 0 586.71 111.93">
  <defs>
    <style>
      .cls-1 {
        fill: #0072ce;
      }

      .cls-2 {
        fill: #43b02a;
      }
    </style>
  </defs>
  <g id="Layer_1" data-name="Layer 1">
    <g>
      <polygon class="cls-1" points="15 55.3 33.34 36.97 26.17 29.8 0 55.96 26.14 82.1 34.08 74.38 15 55.3"/>
      <polygon class="cls-1" points="56.49 13.82 98.4 55.73 83.78 70.35 90.8 77.37 112.44 56.18 55.96 0 30.75 25.22 37.92 32.39 56.49 13.82"/>
      <polygon class="cls-1" points="56.91 97.22 38.75 79.05 30.92 86.88 55.97 111.93 78.38 89.34 71.59 82.54 56.91 97.22"/>
      <polygon class="cls-2" points="105.12 14.71 123.28 32.88 131.11 25.05 106.06 0 83.65 22.59 90.44 29.39 105.12 14.71"/>
      <polygon class="cls-2" points="135.89 29.83 127.95 37.55 147.03 56.63 128.69 74.96 135.86 82.13 162.03 55.97 135.89 29.83"/>
      <polygon class="cls-2" points="105.54 98.11 63.63 56.2 78.25 41.58 71.23 34.56 49.59 55.75 106.07 111.93 131.28 86.71 124.11 79.54 105.54 98.11"/>
      <path class="cls-1" d="m184.24,31.64h18.14c4.09,0,7.21.31,9.35.93,2.88.84,5.35,2.33,7.41,4.48,2.06,2.14,3.62,4.77,4.7,7.88,1.07,3.1,1.61,6.94,1.61,11.5,0,4.01-.5,7.45-1.51,10.35-1.23,3.54-2.98,6.41-5.26,8.6-1.72,1.66-4.05,2.96-6.97,3.88-2.19.69-5.11,1.03-8.78,1.03h-18.68V31.64h0Zm9.97,8.22v32.21h7.39c2.76,0,4.76-.16,5.98-.46,1.62-.4,2.95-1.08,4-2.03,1.07-.95,1.93-2.51,2.59-4.69.68-2.17,1.01-5.15,1.01-8.91s-.33-6.64-1.01-8.65c-.66-2.02-1.61-3.58-2.81-4.71-1.2-1.12-2.73-1.89-4.59-2.29-1.38-.31-4.09-.46-8.13-.46h-4.45Zm84.07,40.43h-10.74l-4.25-11.08h-19.75l-4.09,11.08h-10.55l19.12-48.65h10.54l19.73,48.65h0Zm-18.23-19.3l-6.84-18.01-6.65,18.01h13.49Zm31.03,19.3l-17.62-48.65h10.78l12.51,36.01,12-36.01h10.59l-17.52,48.65h-10.74Zm33.28,0V31.64h20.94c5.26,0,9.09.44,11.48,1.31,2.4.87,4.3,2.42,5.73,4.65,1.43,2.24,2.16,4.79,2.16,7.67,0,3.66-1.08,6.67-3.24,9.05-2.17,2.38-5.4,3.87-9.71,4.5,2.14,1.23,3.91,2.59,5.3,4.08,1.4,1.48,3.28,4.12,5.64,7.9l6.01,9.49h-11.89l-7.13-10.62c-2.56-3.77-4.31-6.15-5.26-7.14-.94-.97-1.94-1.65-2.99-2.02-1.07-.36-2.74-.54-5.03-.54h-2.02v20.32h-9.97Zm9.97-28.06h7.36c4.77,0,7.74-.2,8.93-.6,1.18-.4,2.12-1.09,2.79-2.06.68-.97,1.01-2.2,1.01-3.66,0-1.64-.45-2.96-1.33-3.98-.88-1.01-2.13-1.64-3.74-1.9-.81-.11-3.23-.17-7.26-.17h-7.76v12.37h0Zm58.81-20.59h19.7c3.91,0,6.81.16,8.72.48,1.93.33,3.63,1,5.15,2,1.51,1.02,2.77,2.37,3.78,4.05,1.01,1.69,1.51,3.59,1.51,5.69,0,2.27-.62,4.36-1.86,6.25-1.24,1.9-2.92,3.32-5.04,4.27,2.99.87,5.28,2.34,6.9,4.43,1.61,2.08,2.41,4.53,2.41,7.35,0,2.22-.52,4.37-1.56,6.47-1.04,2.09-2.46,3.77-4.28,5.03-1.8,1.25-4.02,2.02-6.67,2.31-1.65.17-5.65.28-11.99.33h-16.77V31.64h0Zm9.97,8.09v11.21h6.51c3.86,0,6.27-.06,7.21-.17,1.7-.19,3.04-.77,4.01-1.73s1.46-2.22,1.46-3.78-.42-2.72-1.26-3.66c-.84-.94-2.09-1.51-3.74-1.7-.99-.11-3.82-.17-8.48-.17h-5.71Zm0,19.3v13.05h9.22c3.58,0,5.86-.1,6.82-.29,1.48-.27,2.68-.92,3.61-1.95.93-1.04,1.4-2.41,1.4-4.14,0-1.47-.36-2.71-1.08-3.73-.71-1.02-1.75-1.77-3.11-2.23-1.35-.46-4.3-.7-8.83-.7h-8.04Zm84.07,21.27h-10.74l-4.25-11.08h-19.75l-4.09,11.08h-10.55l19.12-48.65h10.54l19.73,48.65h0Zm-18.23-19.3l-6.84-18.01-6.65,18.01h13.49Zm23.54,19.3V31.64h9.65l20.27,32.61V31.64h9.22v48.65h-9.96l-19.96-31.98v31.98h-9.22Zm49.81,0V31.64h9.97v21.55l20.1-21.55h13.37l-18.58,18.95,19.55,29.71h-12.86l-13.55-22.84-8.01,8.13v14.71h-9.97Z"/>
    </g>
  </g>
</svg>